ffmpeg started on 2025-05-26 at 18:56:06
Report written to "D:\Convert\FFMetrics\reports\ssim_report-6.txt"
Log level: 32
Command line:
ffmpeg -hide_banner -nostdin -i "G:\\\xc0\xed\xe8\xec\xe5\\\xce\xed\xe3\xee\xe8\xed\xe3\xe8\\!_34_\xc2\xe5\xf1\xed\xe0_2024\\DreamCast\\\xc7\xe0\xe1\xe2\xe5\xed\xe8\xe5 \xe1\xfd\xf2\xf2\xe5\xf0\xe8\\[DC] Boukyaku Battery - 11_Telegram_HEVC.mkv" -i "G:\\\xc0\xed\xe8\xec\xe5\\\xce\xed\xe3\xee\xe8\xed\xe3\xe8\\!_34_\xc2\xe5\xf1\xed\xe0_2024\\DreamCast\\\xc7\xe0\xe1\xe2\xe5\xed\xe8\xe5 \xe1\xfd\xf2\xf2\xe5\xf0\xe8\\[DC] Boukyaku Battery - 11_Telegram.mp4" -lavfi "[0:v]settb=AVTB,setpts=PTS-STARTPTS,format=pix_fmts=yuv420p10,fps=24000/1001,scale=1920:1080:flags=bicubic[main];[1:v]settb=AVTB,setpts=PTS-STARTPTS,format=pix_fmts=yuv420p,fps=24000/1001,scale=1920:1080:flags=bicubic[ref];[main][ref]ssim=eof_action=endall:stats_file='D\\:/Convert/FFMetrics/logs/ssim_logfile-6.txt'" -f null -
Input #0, matroska,webm, from 'G:\Аниме\Онгоинги\!_34_Весна_2024\DreamCast\Забвение бэттери\[DC] Boukyaku Battery - 11_Telegram_HEVC.mkv':
  Metadata:
    COMPATIBLE_BRANDS: isomiso2avc1mp41
    MAJOR_BRAND     : isom
    MINOR_VERSION   : 512
    ENCODER         : Lavf61.7.100
  Duration: 00:24:01.71, start: -0.021000, bitrate: 1303 kb/s
  Stream #0:0: Video: hevc (Main 10), yuv420p10le(tv, bt709, progressive), 1920x1080 [SAR 1:1 DAR 16:9], 23.98 fps, 23.98 tbr, 1k tbn (default)
      Metadata:
        HANDLER_NAME    : VideoHandler
        VENDOR_ID       : [0][0][0][0]
        ENCODER         : Lavc61.19.100 libx265
        BPS             : 1105814
        DURATION        : 00:24:01.523708333
        NUMBER_OF_FRAMES: 34562
        NUMBER_OF_BYTES : 199257200
        _STATISTICS_WRITING_APP: mkvpropedit v66.0.0 ('Josie') 64-bit
        _STATISTICS_WRITING_DATE_UTC: 2025-05-26 12:10:27
        _STATISTICS_TAGS: BPS DURATION NUMBER_OF_FRAMES NUMBER_OF_BYTES
  Stream #0:1: Audio: aac (LC), 48000 Hz, stereo, fltp (default)
      Metadata:
        HANDLER_NAME    : SoundHandler
        VENDOR_ID       : [0][0][0][0]
        ENCODER         : Lavc61.19.100 aac
        BPS             : 193579
        DURATION        : 00:24:01.706000000
        NUMBER_OF_FRAMES: 67581
        NUMBER_OF_BYTES : 34885548
        _STATISTICS_WRITING_APP: mkvpropedit v66.0.0 ('Josie') 64-bit
        _STATISTICS_WRITING_DATE_UTC: 2025-05-26 12:10:27
        _STATISTICS_TAGS: BPS DURATION NUMBER_OF_FRAMES NUMBER_OF_BYTES
Input #1, mov,mp4,m4a,3gp,3g2,mj2, from 'G:\Аниме\Онгоинги\!_34_Весна_2024\DreamCast\Забвение бэттери\[DC] Boukyaku Battery - 11_Telegram.mp4':
  Metadata:
    major_brand     : isom
    minor_version   : 512
    compatible_brands: isomiso2avc1mp41
    encoder         : Lavf60.16.100
  Duration: 00:24:01.65, start: 0.000000, bitrate: 3927 kb/s
  Stream #1:0[0x1](und): Video: h264 (High) (avc1 / 0x31637661), yuv420p(tv, bt709, progressive), 1920x1080 [SAR 1:1 DAR 16:9], 3779 kb/s, 23.98 fps, 23.98 tbr, 24k tbn (default)
      Metadata:
        handler_name    : VideoHandler
        vendor_id       : [0][0][0][0]
        encoder         : Lavc60.31.102 h264_qsv
  Stream #1:1[0x2](und): Audio: aac (HE-AACv2) (mp4a / 0x6134706D), 48000 Hz, stereo, fltp, 144 kb/s (default)
      Metadata:
        handler_name    : SoundHandler
        vendor_id       : [0][0][0][0]
Stream mapping:
  Stream #0:0 (hevc) -> settb:default
  Stream #1:0 (h264) -> settb:default
  ssim:default -> Stream #0:0 (wrapped_avframe)
  Stream #0:1 -> #0:1 (aac (native) -> pcm_s16le (native))
Output #0, null, to 'pipe:':
  Metadata:
    COMPATIBLE_BRANDS: isomiso2avc1mp41
    MAJOR_BRAND     : isom
    MINOR_VERSION   : 512
    encoder         : Lavf61.7.100
  Stream #0:0: Video: wrapped_avframe, yuv420p10le(tv, bt709, progressive), 1920x1080 [SAR 1:1 DAR 16:9], q=2-31, 200 kb/s, 23.98 fps, 23.98 tbn
      Metadata:
        encoder         : Lavc61.19.100 wrapped_avframe
  Stream #0:1: Audio: pcm_s16le, 48000 Hz, stereo, s16, 1536 kb/s (default)
      Metadata:
        HANDLER_NAME    : SoundHandler
        VENDOR_ID       : [0][0][0][0]
        _STATISTICS_TAGS: BPS DURATION NUMBER_OF_FRAMES NUMBER_OF_BYTES
        BPS             : 193579
        DURATION        : 00:24:01.706000000
        NUMBER_OF_FRAMES: 67581
        NUMBER_OF_BYTES : 34885548
        _STATISTICS_WRITING_APP: mkvpropedit v66.0.0 ('Josie') 64-bit
        _STATISTICS_WRITING_DATE_UTC: 2025-05-26 12:10:27
        encoder         : Lavc61.19.100 pcm_s16le
frame=  177 fps=0.0 q=-0.0 size=N/A time=00:00:07.38 bitrate=N/A speed=14.7x    frame=  431 fps=419 q=-0.0 size=N/A time=00:00:17.97 bitrate=N/A speed=17.5x    frame=  688 fps=447 q=-0.0 size=N/A time=00:00:28.69 bitrate=N/A speed=18.6x    frame=  954 fps=465 q=-0.0 size=N/A time=00:00:39.78 bitrate=N/A speed=19.4x    frame= 1200 fps=467 q=-0.0 size=N/A time=00:00:50.05 bitrate=N/A speed=19.5x    frame= 1402 fps=453 q=-0.0 size=N/A time=00:00:58.47 bitrate=N/A speed=18.9x    frame= 1596 fps=444 q=-0.0 size=N/A time=00:01:06.56 bitrate=N/A speed=18.5x    frame= 1818 fps=441 q=-0.0 size=N/A time=00:01:15.82 bitrate=N/A speed=18.4x    frame= 1997 fps=431 q=-0.0 size=N/A time=00:01:23.29 bitrate=N/A speed=  18x    frame= 2192 fps=425 q=-0.0 size=N/A time=00:01:31.42 bitrate=N/A speed=17.7x    frame= 2407 fps=425 q=-0.0 size=N/A time=00:01:40.39 bitrate=N/A speed=17.7x    frame= 2584 fps=419 q=-0.0 size=N/A time=00:01:47.77 bitrate=N/A speed=17.5x    frame= 2791 fps=417 q=-0.0 size=N/A time=00:01:56.40 bitrate=N/A speed=17.4x    frame= 3026 fps=420 q=-0.0 size=N/A time=00:02:06.20 bitrate=N/A speed=17.5x    frame= 3235 fps=419 q=-0.0 size=N/A time=00:02:14.92 bitrate=N/A speed=17.5x    frame= 3471 fps=421 q=-0.0 size=N/A time=00:02:24.76 bitrate=N/A speed=17.6x    frame= 3687 fps=421 q=-0.0 size=N/A time=00:02:33.77 bitrate=N/A speed=17.6x    frame= 3910 fps=421 q=-0.0 size=N/A time=00:02:43.07 bitrate=N/A speed=17.6x    frame= 4148 fps=423 q=-0.0 size=N/A time=00:02:53.00 bitrate=N/A speed=17.7x    frame= 4408 fps=428 q=-0.0 size=N/A time=00:03:03.85 bitrate=N/A speed=17.9x    frame= 4618 fps=427 q=-0.0 size=N/A time=00:03:12.60 bitrate=N/A speed=17.8x    frame= 4844 fps=428 q=-0.0 size=N/A time=00:03:22.03 bitrate=N/A speed=17.8x    frame= 5085 fps=429 q=-0.0 size=N/A time=00:03:32.08 bitrate=N/A speed=17.9x    frame= 5343 fps=432 q=-0.0 size=N/A time=00:03:42.84 bitrate=N/A speed=  18x    frame= 5579 fps=433 q=-0.0 size=N/A time=00:03:52.69 bitrate=N/A speed=18.1x    frame= 5796 fps=433 q=-0.0 size=N/A time=00:04:01.74 bitrate=N/A speed=  18x    frame= 6034 fps=434 q=-0.0 size=N/A time=00:04:11.66 bitrate=N/A speed=18.1x    frame= 6273 fps=435 q=-0.0 size=N/A time=00:04:21.63 bitrate=N/A speed=18.1x    frame= 6499 fps=435 q=-0.0 size=N/A time=00:04:31.06 bitrate=N/A speed=18.1x    frame= 6707 fps=434 q=-0.0 size=N/A time=00:04:39.73 bitrate=N/A speed=18.1x    frame= 6927 fps=434 q=-0.0 size=N/A time=00:04:48.91 bitrate=N/A speed=18.1x    frame= 7174 fps=435 q=-0.0 size=N/A time=00:04:59.21 bitrate=N/A speed=18.2x    frame= 7400 fps=435 q=-0.0 size=N/A time=00:05:08.64 bitrate=N/A speed=18.2x    frame= 7664 fps=437 q=-0.0 size=N/A time=00:05:19.65 bitrate=N/A speed=18.2x    frame= 7937 fps=440 q=-0.0 size=N/A time=00:05:31.03 bitrate=N/A speed=18.3x    frame= 8192 fps=442 q=-0.0 size=N/A time=00:05:41.67 bitrate=N/A speed=18.4x    frame= 8453 fps=443 q=-0.0 size=N/A time=00:05:52.56 bitrate=N/A speed=18.5x    frame= 8718 fps=445 q=-0.0 size=N/A time=00:06:03.61 bitrate=N/A speed=18.6x    frame= 8981 fps=447 q=-0.0 size=N/A time=00:06:14.58 bitrate=N/A speed=18.6x    frame= 9236 fps=448 q=-0.0 size=N/A time=00:06:25.21 bitrate=N/A speed=18.7x    frame= 9471 fps=448 q=-0.0 size=N/A time=00:06:35.01 bitrate=N/A speed=18.7x    frame= 9731 fps=449 q=-0.0 size=N/A time=00:06:45.86 bitrate=N/A speed=18.7x    frame=10008 fps=452 q=-0.0 size=N/A time=00:06:57.41 bitrate=N/A speed=18.8x    frame=10276 fps=453 q=-0.0 size=N/A time=00:07:08.59 bitrate=N/A speed=18.9x    frame=10541 fps=454 q=-0.0 size=N/A time=00:07:19.64 bitrate=N/A speed=18.9x    frame=10783 fps=455 q=-0.0 size=N/A time=00:07:29.74 bitrate=N/A speed=  19x    frame=11061 fps=456 q=-0.0 size=N/A time=00:07:41.33 bitrate=N/A speed=  19x    frame=11316 fps=457 q=-0.0 size=N/A time=00:07:51.97 bitrate=N/A speed=19.1x    frame=11538 fps=457 q=-0.0 size=N/A time=00:08:01.23 bitrate=N/A speed=  19x    frame=11761 fps=456 q=-0.0 size=N/A time=00:08:10.53 bitrate=N/A speed=  19x    frame=11970 fps=455 q=-0.0 size=N/A time=00:08:19.24 bitrate=N/A speed=  19x    frame=12143 fps=453 q=-0.0 size=N/A time=00:08:26.46 bitrate=N/A speed=18.9x    frame=12357 fps=452 q=-0.0 size=N/A time=00:08:35.38 bitrate=N/A speed=18.9x    frame=12554 fps=451 q=-0.0 size=N/A time=00:08:43.60 bitrate=N/A speed=18.8x    frame=12782 fps=451 q=-0.0 size=N/A time=00:08:53.11 bitrate=N/A speed=18.8x    frame=13013 fps=451 q=-0.0 size=N/A time=00:09:02.75 bitrate=N/A speed=18.8x    frame=13231 fps=450 q=-0.0 size=N/A time=00:09:11.84 bitrate=N/A speed=18.8x    frame=13439 fps=450 q=-0.0 size=N/A time=00:09:20.51 bitrate=N/A speed=18.7x    frame=13691 fps=450 q=-0.0 size=N/A time=00:09:31.02 bitrate=N/A speed=18.8x    frame=13959 fps=451 q=-0.0 size=N/A time=00:09:42.20 bitrate=N/A speed=18.8x    frame=14213 fps=452 q=-0.0 size=N/A time=00:09:52.80 bitrate=N/A speed=18.8x    frame=14471 fps=453 q=-0.0 size=N/A time=00:10:03.56 bitrate=N/A speed=18.9x    frame=14745 fps=454 q=-0.0 size=N/A time=00:10:14.98 bitrate=N/A speed=18.9x    frame=15010 fps=455 q=-0.0 size=N/A time=00:10:26.04 bitrate=N/A speed=  19x    frame=15263 fps=455 q=-0.0 size=N/A time=00:10:36.59 bitrate=N/A speed=  19x    frame=15516 fps=456 q=-0.0 size=N/A time=00:10:47.14 bitrate=N/A speed=  19x    frame=15785 fps=457 q=-0.0 size=N/A time=00:10:58.36 bitrate=N/A speed=19.1x    frame=16049 fps=458 q=-0.0 size=N/A time=00:11:09.37 bitrate=N/A speed=19.1x    frame=16285 fps=458 q=-0.0 size=N/A time=00:11:19.22 bitrate=N/A speed=19.1x    frame=16515 fps=458 q=-0.0 size=N/A time=00:11:28.81 bitrate=N/A speed=19.1x    frame=16737 fps=457 q=-0.0 size=N/A time=00:11:38.07 bitrate=N/A speed=19.1x    frame=16984 fps=458 q=-0.0 size=N/A time=00:11:48.37 bitrate=N/A speed=19.1x    frame=17203 fps=457 q=-0.0 size=N/A time=00:11:57.50 bitrate=N/A speed=19.1x    frame=17471 fps=458 q=-0.0 size=N/A time=00:12:08.68 bitrate=N/A speed=19.1x    frame=17718 fps=458 q=-0.0 size=N/A time=00:12:18.98 bitrate=N/A speed=19.1x    frame=17975 fps=459 q=-0.0 size=N/A time=00:12:29.70 bitrate=N/A speed=19.1x    frame=18188 fps=458 q=-0.0 size=N/A time=00:12:38.59 bitrate=N/A speed=19.1x    frame=18436 fps=458 q=-0.0 size=N/A time=00:12:48.93 bitrate=N/A speed=19.1x    frame=18649 fps=458 q=-0.0 size=N/A time=00:12:57.81 bitrate=N/A speed=19.1x    frame=18904 fps=458 q=-0.0 size=N/A time=00:13:08.45 bitrate=N/A speed=19.1x    frame=19158 fps=459 q=-0.0 size=N/A time=00:13:19.04 bitrate=N/A speed=19.1x    frame=19404 fps=459 q=-0.0 size=N/A time=00:13:29.30 bitrate=N/A speed=19.1x    frame=19657 fps=459 q=-0.0 size=N/A time=00:13:39.86 bitrate=N/A speed=19.2x    frame=19896 fps=459 q=-0.0 size=N/A time=00:13:49.82 bitrate=N/A speed=19.2x    frame=20099 fps=459 q=-0.0 size=N/A time=00:13:58.29 bitrate=N/A speed=19.1x    frame=20374 fps=459 q=-0.0 size=N/A time=00:14:09.76 bitrate=N/A speed=19.2x    frame=20616 fps=460 q=-0.0 size=N/A time=00:14:19.85 bitrate=N/A speed=19.2x    frame=20855 fps=460 q=-0.0 size=N/A time=00:14:29.82 bitrate=N/A speed=19.2x    frame=21075 fps=459 q=-0.0 size=N/A time=00:14:39.00 bitrate=N/A speed=19.2x    frame=21348 fps=460 q=-0.0 size=N/A time=00:14:50.38 bitrate=N/A speed=19.2x    frame=21595 fps=460 q=-0.0 size=N/A time=00:15:00.69 bitrate=N/A speed=19.2x    frame=21875 fps=461 q=-0.0 size=N/A time=00:15:12.36 bitrate=N/A speed=19.2x    frame=22148 fps=462 q=-0.0 size=N/A time=00:15:23.75 bitrate=N/A speed=19.3x    frame=22432 fps=463 q=-0.0 size=N/A time=00:15:35.60 bitrate=N/A speed=19.3x    frame=22683 fps=463 q=-0.0 size=N/A time=00:15:46.07 bitrate=N/A speed=19.3x    frame=22905 fps=463 q=-0.0 size=N/A time=00:15:55.32 bitrate=N/A speed=19.3x    frame=23139 fps=463 q=-0.0 size=N/A time=00:16:05.13 bitrate=N/A speed=19.3x    frame=23426 fps=464 q=-0.0 size=N/A time=00:16:17.05 bitrate=N/A speed=19.3x    frame=23686 fps=464 q=-0.0 size=N/A time=00:16:27.90 bitrate=N/A speed=19.3x    frame=23926 fps=464 q=-0.0 size=N/A time=00:16:37.91 bitrate=N/A speed=19.4x    frame=24166 fps=464 q=-0.0 size=N/A time=00:16:47.92 bitrate=N/A speed=19.3x    frame=24420 fps=464 q=-0.0 size=N/A time=00:16:58.51 bitrate=N/A speed=19.4x    frame=24694 fps=465 q=-0.0 size=N/A time=00:17:09.94 bitrate=N/A speed=19.4x    frame=24941 fps=465 q=-0.0 size=N/A time=00:17:20.24 bitrate=N/A speed=19.4x    frame=25207 fps=465 q=-0.0 size=N/A time=00:17:31.34 bitrate=N/A speed=19.4x    frame=25451 fps=466 q=-0.0 size=N/A time=00:17:41.51 bitrate=N/A speed=19.4x    frame=25743 fps=466 q=-0.0 size=N/A time=00:17:53.69 bitrate=N/A speed=19.5x    frame=25976 fps=466 q=-0.0 size=N/A time=00:18:03.41 bitrate=N/A speed=19.5x    frame=26218 fps=466 q=-0.0 size=N/A time=00:18:13.50 bitrate=N/A speed=19.5x    frame=26473 fps=467 q=-0.0 size=N/A time=00:18:24.14 bitrate=N/A speed=19.5x    frame=26728 fps=467 q=-0.0 size=N/A time=00:18:34.78 bitrate=N/A speed=19.5x    frame=26983 fps=467 q=-0.0 size=N/A time=00:18:45.41 bitrate=N/A speed=19.5x    frame=27223 fps=467 q=-0.0 size=N/A time=00:18:55.42 bitrate=N/A speed=19.5x    frame=27493 fps=468 q=-0.0 size=N/A time=00:19:06.68 bitrate=N/A speed=19.5x    frame=27748 fps=468 q=-0.0 size=N/A time=00:19:17.32 bitrate=N/A speed=19.5x    frame=28019 fps=468 q=-0.0 size=N/A time=00:19:28.62 bitrate=N/A speed=19.5x    frame=28265 fps=468 q=-0.0 size=N/A time=00:19:38.88 bitrate=N/A speed=19.5x    frame=28496 fps=468 q=-0.0 size=N/A time=00:19:48.52 bitrate=N/A speed=19.5x    frame=28738 fps=468 q=-0.0 size=N/A time=00:19:58.61 bitrate=N/A speed=19.5x    frame=28983 fps=468 q=-0.0 size=N/A time=00:20:08.83 bitrate=N/A speed=19.5x    frame=29239 fps=469 q=-0.0 size=N/A time=00:20:19.50 bitrate=N/A speed=19.5x    frame=29467 fps=468 q=-0.0 size=N/A time=00:20:29.01 bitrate=N/A speed=19.5x    frame=29668 fps=468 q=-0.0 size=N/A time=00:20:37.40 bitrate=N/A speed=19.5x    frame=29946 fps=468 q=-0.0 size=N/A time=00:20:48.99 bitrate=N/A speed=19.5x    frame=30212 fps=469 q=-0.0 size=N/A time=00:21:00.09 bitrate=N/A speed=19.5x    frame=30471 fps=469 q=-0.0 size=N/A time=00:21:10.89 bitrate=N/A speed=19.6x    frame=30684 fps=469 q=-0.0 size=N/A time=00:21:19.77 bitrate=N/A speed=19.5x    frame=30932 fps=469 q=-0.0 size=N/A time=00:21:30.12 bitrate=N/A speed=19.5x    frame=31183 fps=469 q=-0.0 size=N/A time=00:21:40.59 bitrate=N/A speed=19.5x    frame=31434 fps=469 q=-0.0 size=N/A time=00:21:51.05 bitrate=N/A speed=19.6x    frame=31658 fps=469 q=-0.0 size=N/A time=00:22:00.40 bitrate=N/A speed=19.5x    frame=31916 fps=469 q=-0.0 size=N/A time=00:22:11.16 bitrate=N/A speed=19.6x    frame=32148 fps=469 q=-0.0 size=N/A time=00:22:20.83 bitrate=N/A speed=19.5x    frame=32363 fps=468 q=-0.0 size=N/A time=00:22:29.80 bitrate=N/A speed=19.5x    frame=32595 fps=468 q=-0.0 size=N/A time=00:22:39.48 bitrate=N/A speed=19.5x    frame=32789 fps=468 q=-0.0 size=N/A time=00:22:47.57 bitrate=N/A speed=19.5x    frame=32949 fps=466 q=-0.0 size=N/A time=00:22:54.24 bitrate=N/A speed=19.5x    frame=33147 fps=466 q=-0.0 size=N/A time=00:23:02.50 bitrate=N/A speed=19.4x    frame=33324 fps=465 q=-0.0 size=N/A time=00:23:09.88 bitrate=N/A speed=19.4x    frame=33525 fps=464 q=-0.0 size=N/A time=00:23:18.27 bitrate=N/A speed=19.4x    frame=33666 fps=463 q=-0.0 size=N/A time=00:23:24.15 bitrate=N/A speed=19.3x    frame=33839 fps=462 q=-0.0 size=N/A time=00:23:31.36 bitrate=N/A speed=19.3x    frame=34018 fps=461 q=-0.0 size=N/A time=00:23:38.83 bitrate=N/A speed=19.2x    frame=34224 fps=461 q=-0.0 size=N/A time=00:23:47.42 bitrate=N/A speed=19.2x    frame=34447 fps=461 q=-0.0 size=N/A time=00:23:56.72 bitrate=N/A speed=19.2x    [Parsed_ssim_10 @ 0000025843378f40] SSIM Y:0.994263 (22.413049) U:0.993985 (22.207484) V:0.993178 (21.660940) All:0.994036 (22.244421)
[out#0/null @ 000002583b834e80] video:14851KiB audio:270324KiB subtitle:0KiB other streams:0KiB global headers:0KiB muxing overhead: unknown
frame=34562 fps=461 q=-0.0 Lsize=N/A time=00:24:01.52 bitrate=N/A speed=19.2x    
